<?xml version="1.0" standalone="no"?>
<!DOCTYPE svg PUBLIC "-//W3C//DTD SVG 20010904//EN"
 "http://www.w3.org/TR/2001/REC-SVG-20010904/DTD/svg10.dtd">
<svg version="1.0" xmlns="http://www.w3.org/2000/svg"
 width="338.000000pt" height="338.000000pt" viewBox="0 0 338.000000 338.000000"
 preserveAspectRatio="xMidYMid meet">

<g transform="translate(0.000000,338.000000) scale(0.100000,-0.100000)"
fill="#000000" stroke="none">
<path d="M2145 2918 c-86 -31 -163 -111 -211 -223 -21 -49 -33 -64 -44 -59
-29 11 -118 17 -164 10 -34 -5 -107 -44 -288 -153 -134 -80 -255 -157 -271
-171 -46 -44 -77 -118 -77 -186 0 -83 16 -139 38 -133 9 3 44 12 77 22 l61 17
134 221 c187 306 186 304 244 337 28 17 58 30 66 29 8 0 -8 -11 -37 -24 -54
-24 -127 -107 -118 -133 3 -8 0 -10 -7 -6 -8 5 -9 2 -5 -10 4 -9 3 -15 -1 -12
-12 7 -74 -112 -66 -125 4 -8 3 -9 -4 -5 -13 8 -51 -61 -49 -90 1 -10 -3 -18
-10 -17 -16 4 -36 -34 -27 -50 4 -6 3 -9 -1 -5 -7 7 -54 -56 -55 -74 0 -4 24
10 53 32 28 22 56 40 60 40 5 0 5 5 1 12 -4 6 -3 8 3 5 5 -3 37 5 70 18 120
49 331 54 532 15 52 -11 99 -16 105 -13 6 3 8 2 3 -2 -9 -11 92 -67 107 -58 6
3 8 3 4 -2 -4 -4 -3 -14 3 -22 13 -15 33 -18 24 -4 -3 5 0 13 6 17 7 4 9 3 6
-3 -4 -6 5 -20 18 -33 13 -13 22 -27 19 -31 -6 -10 98 -79 109 -72 5 3 6 12 3
20 -3 8 -2 12 3 8 18 -11 44 95 38 159 -5 62 -24 119 -37 111 -4 -3 -7 3 -6
13 0 9 -5 16 -12 14 -8 -1 -11 2 -8 7 8 12 -18 33 -29 23 -5 -4 -5 -2 -1 5 8
14 -35 45 -55 40 -8 -2 -10 -2 -6 1 5 2 -1 11 -12 19 -12 8 -26 11 -33 7 -7
-4 -8 -3 -4 4 13 21 -2 13 -35 -20 -19 -18 -34 -37 -34 -43 0 -5 -9 -9 -19 -7
-11 2 -15 -1 -11 -8 3 -6 3 -10 -2 -9 -21 4 -34 -2 -27 -13 4 -6 3 -8 -4 -5
-5 4 -38 0 -72 -9 -38 -9 -72 -13 -88 -8 -15 4 -31 8 -37 8 -5 1 -9 17 -7 36
5 59 9 75 19 73 5 -1 26 2 46 7 20 4 35 4 32 0 -3 -5 3 -11 13 -14 10 -3 18
-15 19 -27 2 -18 -3 -20 -35 -17 -28 2 -37 -1 -37 -12 0 -23 100 -18 151 8
119 61 214 227 214 375 0 152 -106 241 -235 195z m120 -32 c66 -28 97 -120 77
-227 -11 -60 -50 -147 -82 -187 l-19 -23 -96 51 c-52 28 -100 48 -107 44 -7
-4 -8 -3 -4 4 7 11 -87 66 -97 56 -20 -20 35 102 67 150 47 68 97 111 152 131
50 18 67 18 109 1z m-492 -253 c-7 -2 -19 -2 -25 0 -7 3 -2 5 12 5 14 0 19 -2
13 -5z m314 -359 c-3 -3 -12 -4 -19 -1 -8 3 -5 6 6 6 11 1 17 -2 13 -5z"/>
<path d="M1620 2179 c-61 -11 -168 -57 -217 -95 -17 -13 -38 -24 -45 -24 -7 0
-19 -9 -26 -20 -7 -11 -18 -20 -25 -20 -6 0 -83 -23 -170 -51 -143 -46 -161
-54 -178 -83 -10 -17 -19 -39 -19 -48 0 -10 -9 -34 -19 -55 -11 -22 -21 -70
-24 -111 -5 -67 -4 -73 17 -87 32 -21 144 -48 361 -86 105 -19 182 -35 171
-37 -23 -5 -137 11 -324 44 -127 23 -147 24 -185 12 -89 -28 -50 -57 108 -78
44 -6 91 -16 105 -22 14 -6 32 -10 40 -9 12 1 12 0 2 -7 -10 -7 -7 -13 13 -26
14 -9 31 -14 37 -10 7 4 8 3 4 -4 -8 -14 50 -46 66 -36 6 4 8 3 5 -3 -8 -13
20 -26 35 -16 7 3 8 1 4 -5 -8 -14 50 -46 66 -36 7 4 8 3 4 -4 -8 -14 70 -56
86 -46 7 5 8 3 3 -6 -6 -10 -4 -12 9 -7 10 4 15 3 11 -3 -8 -12 52 -43 67 -34
7 4 8 3 4 -4 -8 -14 50 -46 66 -36 6 4 8 3 4 -4 -9 -14 54 -34 112 -35 116 -1
129 4 376 152 129 78 249 153 265 167 78 65 108 209 64 304 -15 31 -22 39 -22
24 -1 -23 -30 -54 -51 -54 -9 0 -8 6 5 20 16 17 17 32 12 118 -7 116 -11 128
-48 148 -16 8 -57 39 -91 70 -122 109 -230 143 -468 149 -85 2 -180 0 -210 -6z
m333 -36 c-13 -2 -35 -2 -50 0 -16 2 -5 4 22 4 28 0 40 -2 28 -4z m-333 -8 c0
-2 -17 -13 -37 -24 -21 -10 -48 -30 -61 -44 -27 -29 -23 -34 52 -53 48 -12 45
-12 -59 -7 -167 9 -169 10 -97 61 34 23 76 49 94 57 31 13 108 21 108 10z
m501 -23 c-7 -2 -18 1 -23 6 -8 8 -4 9 13 5 13 -4 18 -8 10 -11z m89 -44 c0
-10 -36 7 -45 22 -4 6 5 5 19 -2 14 -6 26 -15 26 -20z m-253 -60 c-3 -8 -6 -5
-6 6 -1 11 2 17 5 13 3 -3 4 -12 1 -19z m313 12 c0 -5 -2 -10 -4 -10 -3 0 -8
5 -11 10 -3 6 -1 10 4 10 6 0 11 -4 11 -10z m-163 -24 c22 -19 25 -27 16 -37
-10 -10 -14 -9 -19 5 -4 10 -25 26 -48 36 l-41 19 32 0 c20 1 42 -8 60 -23z
m-564 -13 c-7 -2 -19 -2 -25 0 -7 3 -2 5 12 5 14 0 19 -2 13 -5z m388 -32
c-14 -26 -392 -151 -476 -158 -65 -5 -423 42 -440 58 -5 6 -4 14 4 22 8 7 11
7 8 1 -7 -12 46 -22 274 -50 121 -15 135 -15 200 1 38 9 66 21 63 26 -3 5 2 6
10 3 20 -8 216 57 209 69 -4 6 -1 7 7 2 16 -10 91 15 83 28 -3 6 -1 7 5 4 5
-4 21 -3 34 2 12 6 24 10 26 10 1 1 -2 -8 -7 -18z m276 -17 c-3 -3 -12 -4 -19
-1 -8 3 -5 6 6 6 11 1 17 -2 13 -5z m-50 -10 c-3 -3 -12 -4 -19 -1 -8 3 -5 6
6 6 11 1 17 -2 13 -5z m-232 -14 c-11 -5 -27 -9 -35 -9 -9 0 -8 4 5 9 11 5 27
9 35 9 9 0 8 -4 -5 -9z m332 -26 c-3 -3 -12 -4 -19 -1 -8 3 -5 6 6 6 11 1 17
-2 13 -5z m-1261 -29 c3 -13 4 -30 1 -37 -3 -7 -6 -3 -6 10 -1 12 -6 22 -12
22 -7 0 -9 -10 -5 -25 4 -14 2 -25 -4 -25 -11 0 -14 39 -4 64 9 23 23 19 30
-9z m1330 17 c-3 -5 -31 -14 -63 -21 -32 -7 -123 -31 -202 -53 -118 -34 -145
-38 -152 -27 -5 8 -9 17 -9 20 0 9 104 34 260 64 137 26 174 29 166 17z m-383
-19 c-7 -2 -19 -2 -25 0 -7 3 -2 5 12 5 14 0 19 -2 13 -5z m104 -9 c-3 -3 -12
-4 -19 -1 -8 3 -5 6 6 6 11 1 17 -2 13 -5z m326 -22 c35 -38 30 -161 -8 -192
-22 -18 -52 12 -60 60 -9 55 19 150 45 150 4 0 14 -8 23 -18z m-663 -13 c0
-19 -67 -79 -89 -79 -26 0 -27 12 -1 28 30 18 24 32 -13 32 -50 0 -98 -17
-131 -47 -29 -27 -30 -27 -14 -3 23 37 69 60 140 69 92 12 108 12 108 0z
m-240 -33 c0 -2 -8 -10 -17 -17 -16 -13 -17 -12 -4 4 13 16 21 21 21 13z m404
-56 c45 -54 48 -168 6 -235 -55 -89 -130 -30 -130 102 1 87 40 161 87 163 6 0
23 -14 37 -30z m-209 0 c-3 -5 -14 -10 -23 -9 -14 0 -13 2 3 9 27 11 27 11 20
0z m564 -105 c-3 -2 -76 -31 -162 -64 -106 -40 -157 -55 -157 -46 0 8 58 33
148 63 135 46 183 59 171 47z m11 -90 c0 -9 -220 -335 -226 -335 -4 0 1 11 10
25 9 14 14 31 10 37 -4 6 -3 8 3 5 13 -8 56 70 47 85 -4 7 -3 8 4 4 13 -8 34
26 29 46 -2 7 -2 9 1 5 2 -5 15 10 29 34 19 33 21 44 11 51 -10 8 -10 9 1 6 8
-2 24 6 37 19 21 21 44 30 44 18z m-753 -171 c-3 -3 -12 -4 -19 -1 -8 3 -5 6
6 6 11 1 17 -2 13 -5z m488 -204 c-3 -5 -16 -15 -28 -21 -19 -9 -19 -8 3 10
28 23 34 26 25 11z m-228 -46 c-3 -3 -12 -4 -19 -1 -8 3 -5 6 6 6 11 1 17 -2
13 -5z"/>
<path d="M2330 1794 c-11 -28 -13 -97 -4 -131 8 -31 32 -29 44 3 11 28 13 114
4 138 -9 24 -33 19 -44 -10z m38 -70 c-2 -15 -8 -29 -15 -31 -18 -6 -28 44
-13 63 18 20 32 4 28 -32z"/>
<path d="M1805 1714 c-26 -27 -37 -64 -37 -130 -1 -111 47 -157 96 -91 29 39
34 148 9 197 -21 40 -43 48 -68 24z m55 -119 c0 -40 -23 -63 -45 -45 -21 17
-19 77 2 89 25 14 43 -5 43 -44z"/>
<path d="M1841 1594 c0 -11 3 -14 6 -6 3 7 2 16 -1 19 -3 4 -6 -2 -5 -13z"/>
<path d="M2315 2070 c10 -11 20 -20 23 -20 3 0 -3 9 -13 20 -10 11 -20 20 -23
20 -3 0 3 -9 13 -20z"/>
<path d="M760 1011 c0 -1 25 -99 57 -217 l56 -214 817 0 817 0 56 213 c32 117
57 215 57 218 0 2 -419 4 -930 4 -512 0 -930 -2 -930 -4z m300 -81 c12 -12 20
-33 20 -55 0 -31 -3 -35 -25 -35 -21 0 -25 5 -25 31 0 24 -4 30 -17 27 -16 -3
-18 -16 -18 -103 0 -87 2 -100 18 -103 14 -3 17 4 17 32 0 32 3 36 25 36 23 0
25 -4 25 -40 0 -74 -66 -105 -115 -55 -23 23 -25 31 -25 130 0 99 2 107 25
130 29 30 68 32 95 5z m150 3 c0 -5 11 -70 24 -145 l23 -138 -29 0 c-23 0 -28
4 -28 25 0 20 -5 25 -25 25 -18 0 -26 -7 -31 -25 -4 -17 -13 -25 -28 -25 l-23
0 23 143 c13 78 24 143 24 145 0 6 70 1 70 -5z m190 -8 c15 -18 16 -103 2
-117 -6 -6 -5 -19 4 -36 8 -15 14 -49 14 -75 0 -47 -1 -48 -27 -45 -27 3 -28
6 -31 61 -3 49 -6 57 -22 57 -18 0 -20 -7 -20 -60 0 -57 -1 -60 -25 -60 l-25
0 0 145 0 145 59 0 c41 0 62 -5 71 -15z m232 -2 c15 -14 18 -32 18 -126 0
-135 -7 -147 -87 -147 l-53 0 0 145 0 145 52 0 c34 0 58 -6 70 -17z m178 -3
c0 -17 -7 -20 -40 -20 -40 0 -40 0 -40 -38 0 -37 1 -38 30 -34 27 4 30 1 30
-22 0 -22 -4 -26 -30 -26 -29 0 -30 -2 -30 -45 l0 -45 40 0 c33 0 40 -3 40
-20 0 -18 -7 -20 -65 -20 l-65 0 0 145 0 145 65 0 c58 0 65 -2 65 -20z m148
-117 c12 -76 22 -141 22 -145 0 -5 -11 -8 -24 -8 -18 0 -25 6 -28 23 -2 16
-11 23 -30 25 -24 3 -28 0 -28 -22 0 -21 -5 -26 -25 -26 -14 0 -25 3 -25 6 0
11 41 259 45 272 3 6 19 12 38 12 l33 0 22 -137z m92 12 l0 -125 40 0 c33 0
40 -3 40 -20 0 -18 -7 -20 -65 -20 l-65 0 0 145 0 145 25 0 25 0 0 -125z m220
105 c0 -16 -7 -20 -35 -20 -33 0 -35 -2 -35 -34 0 -30 3 -35 28 -38 19 -2 28
-9 30 -25 3 -20 -1 -23 -27 -23 -30 0 -31 -1 -31 -45 0 -45 0 -45 35 -45 28 0
35 -4 35 -20 0 -18 -7 -20 -65 -20 l-65 0 0 145 0 145 65 0 c58 0 65 -2 65
-20z m156 -5 c11 -18 14 -36 10 -62 -7 -43 -7 -43 0 -135 6 -68 6 -68 -20 -68
-23 0 -25 3 -28 57 -2 46 -7 59 -20 61 -16 3 -18 -5 -18 -57 0 -58 -1 -61 -25
-61 l-25 0 0 145 0 145 55 0 c47 0 57 -3 71 -25z"/>
<path d="M1166 823 c-9 -58 -7 -73 9 -73 11 0 13 11 8 53 -7 65 -9 67 -17 20z"/>
<path d="M1327 894 c-4 -4 -7 -22 -7 -41 0 -27 4 -33 21 -33 17 0 20 5 17 37
-3 35 -17 51 -31 37z"/>
<path d="M1560 795 c0 -96 2 -106 18 -103 15 3 17 16 17 103 0 87 -2 100 -17
103 -16 3 -18 -7 -18 -103z"/>
<path d="M1890 817 c0 -19 -3 -42 -6 -51 -4 -11 0 -16 13 -16 18 0 19 5 13 45
-9 57 -20 70 -20 22z"/>
<path d="M2350 860 c0 -29 4 -40 15 -40 20 0 29 23 21 55 -11 42 -36 31 -36
-15z"/>
<path d="M1305 516 c-23 -17 -16 -60 11 -64 26 -4 48 21 39 47 -8 25 -29 33
-50 17z m35 -32 c0 -33 -33 -30 -38 4 -3 17 2 22 17 22 16 0 21 -6 21 -26z"/>
<path d="M1735 517 c-10 -8 -16 -23 -13 -38 2 -19 9 -24 33 -24 25 0 31 4 33
27 4 34 -26 54 -53 35z m42 -41 c-4 -9 -13 -16 -21 -16 -19 0 -29 30 -15 47
11 12 14 12 27 -1 8 -8 12 -22 9 -30z"/>
<path d="M1170 505 c0 -9 7 -18 15 -21 20 -8 19 -21 -2 -27 -14 -4 -12 -5 5
-6 26 -1 29 20 6 40 -14 12 -14 14 3 20 16 7 15 8 -4 8 -14 1 -23 -5 -23 -14z"/>
<path d="M1232 488 c-2 -34 1 -38 21 -37 15 1 17 3 5 6 -10 2 -18 17 -21 36
-4 31 -4 31 -5 -5z"/>
<path d="M1375 500 c-8 -25 10 -50 36 -50 12 0 19 7 19 20 0 11 -4 20 -10 20
-5 0 -7 -7 -4 -15 4 -9 0 -15 -10 -15 -26 0 -21 48 7 53 19 4 19 4 -5 6 -19 1
-29 -5 -33 -19z"/>
<path d="M1459 493 c-5 -14 -8 -31 -5 -37 3 -7 5 -6 5 2 1 6 10 12 20 12 11 0
22 -6 24 -12 10 -25 7 10 -3 36 -12 33 -28 33 -41 -1z m31 -3 c0 -5 -4 -10
-10 -10 -5 0 -10 5 -10 10 0 6 5 10 10 10 6 0 10 -4 10 -10z"/>
<path d="M1531 483 c1 -37 1 -38 8 -8 l8 30 13 -27 c18 -37 27 -35 32 7 2 19
0 35 -4 35 -4 0 -8 -10 -9 -22 l0 -23 -16 23 c-23 32 -33 27 -32 -15z"/>
<path d="M1645 501 c-9 -28 5 -51 31 -51 17 0 24 6 24 20 0 13 -6 20 -17 19
-11 0 -13 -3 -5 -6 17 -7 15 -23 -3 -23 -26 0 -19 48 8 53 19 4 19 4 -5 6 -18
1 -29 -5 -33 -18z"/>
<path d="M1810 485 c0 -30 3 -35 23 -34 16 1 18 2 5 6 -10 2 -18 9 -18 14 0 5
8 9 18 9 15 1 15 2 -3 12 -19 11 -19 11 0 19 19 7 18 8 -2 8 -20 1 -23 -4 -23
-34z"/>
<path d="M1870 505 c0 -9 7 -18 15 -21 20 -8 19 -21 -2 -27 -14 -4 -12 -5 5
-6 26 -1 29 20 6 40 -14 12 -14 14 3 20 16 7 15 8 -4 8 -14 1 -23 -5 -23 -14z"/>
<path d="M1962 485 c0 -22 2 -32 5 -22 2 9 13 17 23 17 13 0 17 -5 14 -15 -4
-8 -1 -15 5 -15 6 0 11 16 11 35 0 19 -4 35 -10 35 -5 0 -9 -5 -7 -12 4 -20
-31 -21 -36 -1 -3 10 -5 0 -5 -22z"/>
<path d="M2040 485 c0 -30 3 -35 23 -34 16 1 18 2 5 6 -10 2 -18 9 -18 14 0 5
8 9 18 9 15 1 15 2 -3 12 -19 11 -19 11 0 19 19 7 18 8 -2 8 -20 1 -23 -4 -23
-34z"/>
<path d="M2101 483 c1 -21 3 -30 6 -20 6 21 12 22 27 1 10 -13 12 -10 13 20 1
32 -2 36 -23 36 -21 0 -24 -4 -23 -37z m39 17 c0 -5 -7 -10 -15 -10 -8 0 -15
5 -15 10 0 6 7 10 15 10 8 0 15 -4 15 -10z"/>
<path d="M2170 485 c0 -30 3 -35 23 -35 18 0 19 2 7 10 -12 8 -13 11 -1 19 11
7 11 9 0 14 -12 4 -11 7 1 16 12 9 11 11 -7 11 -20 0 -23 -5 -23 -35z"/>
<path d="M1045 490 c-15 -7 -10 -9 23 -9 23 -1 42 4 42 9 0 12 -37 12 -65 0z"/>
<path d="M2270 490 c0 -5 19 -10 43 -9 32 0 37 2 22 9 -28 12 -65 12 -65 0z"/>
</g>
</svg>
