<svg xmlns="http://www.w3.org/2000/svg" viewBox="0 0 400 300" data-imageid="happy-face-outline" imageName="Happy face" class="illustrations_image" style="width: 188px;"><g id="_282_happy_face_outline" data-name="#282_happy_face_outline"><path d="M286.07,152.58a85.94,85.94,0,0,1-38.63,71.82,83.17,83.17,0,0,1-10.12,5.74,82.2,82.2,0,0,1-8.54,3.57,86.3,86.3,0,0,1-57.56,0,82.2,82.2,0,0,1-8.54-3.57,85.73,85.73,0,0,1-18.27-11.85A86.07,86.07,0,0,1,162,75.36h0a86.25,86.25,0,0,1,66.9-3.85s0,0,0,0A86.08,86.08,0,0,1,286.07,152.58Z" fill="#fff"/><path d="M200,239.65a86.54,86.54,0,0,1-29.12-5,85,85,0,0,1-8.64-3.61A83.84,83.84,0,0,1,152,225.23a85.22,85.22,0,0,1-8.25-6.18A87.06,87.06,0,0,1,161.48,74.5l.08,0a87.25,87.25,0,0,1,67.65-3.9l.06,0h0A87.08,87.08,0,0,1,248,225.23a88.16,88.16,0,0,1-18.87,9.42A86.54,86.54,0,0,1,200,239.65ZM162.51,76.21l-.08.05a85.07,85.07,0,0,0-17.37,141.27,81.14,81.14,0,0,0,8.05,6,82.15,82.15,0,0,0,10,5.68,83.49,83.49,0,0,0,8.45,3.53,85.31,85.31,0,0,0,56.88,0,86.66,86.66,0,0,0,18.45-9.2A85.08,85.08,0,0,0,228.61,72.46l-.05,0a85.27,85.27,0,0,0-66.05,3.77Z" fill="#093f68"/><rect x="193.73" y="162.98" width="12.4" height="16.23" fill="#ffbc0e"/><path d="M206.13,180.22h-12.4a1,1,0,0,1-1-1V163a1,1,0,0,1,1-1h12.4a1,1,0,0,1,1,1v16.24A1,1,0,0,1,206.13,180.22Zm-11.4-2h10.4V164h-10.4Z" fill="#093f68"/><path d="M151.93,152.4v.12c-6.88-1.45-3.68,7.07-9.9,4-3.07-1.47-4.34,6-7.2,4.19L111,118s-8.45-6.93-8.85-12.87,5.16-11.82,8.11-11c1.76.5,8.45,11.07,8.45,11.07,1.36-9.35,3.67-9.36,5.56-8s-.62,14.92-.62,14.92l6.76,9.1,19.51,26.3A10.2,10.2,0,0,1,151.93,152.4Z" fill="#ffbc0e"/><path d="M135.72,162.06a2.6,2.6,0,0,1-1.42-.47,1,1,0,0,1-.34-.35l-23.75-42.56c-1.2-1-8.67-7.53-9.06-13.45-.29-4.34,2.31-8.52,4.84-10.57,1.61-1.3,3.23-1.81,4.53-1.44,1.55.44,5,5.35,7.63,9.33.79-4,1.88-6.07,3.44-6.74a3.25,3.25,0,0,1,3.25.61c2,1.44.82,10.13-.13,15.49l26,35.05a11.31,11.31,0,0,1,2.2,5.31h0v.12a1,1,0,0,1-1.19,1.11c-2.69-.56-3.28.54-4.1,2.08s-2,3.82-6,1.88c-.65-.31-1.2.23-2.42,1.9C138.36,160.49,137.23,162.05,135.72,162.06Zm-.16-2.06c.42.13.85-.23,2-1.81s2.63-3.63,4.91-2.53,2.58.52,3.41-1c.73-1.37,1.78-3.38,4.82-3.27a9.48,9.48,0,0,0-1.58-3.2l-26.28-35.4a1,1,0,0,1-.18-.78c1.08-6,1.73-13,1-14-.79-.55-1.14-.41-1.25-.36-.5.22-1.77,1.4-2.69,7.75a1,1,0,0,1-1.84.39c-3-4.77-6.9-10.2-7.91-10.66a3.65,3.65,0,0,0-2.69,1.09,11.28,11.28,0,0,0-4.11,8.88c.36,5.44,8.4,12.09,8.48,12.16a1,1,0,0,1,.24.29Z" fill="#093f68"/><path d="M114.69,114.36a1,1,0,0,1-.92-.6c-1.23-2.86-1.29-5.18-.19-6.9,1.58-2.48,4.94-2.6,5.08-2.61a1,1,0,0,1,.07,2s-2.47.11-3.47,1.7c-.72,1.13-.6,2.81.34,5a1,1,0,0,1-.52,1.31A.91.91,0,0,1,114.69,114.36Z" fill="#093f68"/><path d="M248.07,152.4v.12c6.88-1.45,3.68,7.07,9.9,4,3.07-1.47,4.34,6,7.2,4.19L289,118s8.45-6.93,8.85-12.87-5.16-11.82-8.11-11c-1.76.5-8.45,11.07-8.45,11.07-1.36-9.35-3.67-9.36-5.56-8s.62,14.92.62,14.92l-6.76,9.1-19.51,26.3A10.2,10.2,0,0,0,248.07,152.4Z" fill="#ffbc0e"/><path d="M264.28,162.06c-1.51,0-2.64-1.57-3.46-2.7-1.22-1.68-1.77-2.21-2.42-1.9-4,1.94-5.23-.36-6-1.88s-1.41-2.65-4.1-2.08a1,1,0,0,1-1.19-1.11v-.12h0a11.3,11.3,0,0,1,2.21-5.32l26-35c-1-5.36-2.14-14-.13-15.49a3.25,3.25,0,0,1,3.25-.61c1.56.67,2.65,2.78,3.44,6.74,2.61-4,6.08-8.89,7.63-9.33,1.31-.37,2.92.14,4.53,1.44,2.53,2,5.13,6.23,4.84,10.57-.39,5.92-7.86,12.45-9.06,13.45L266,161.24a1,1,0,0,1-.34.35A2.6,2.6,0,0,1,264.28,162.06Zm-5.51-6.71c1.61,0,2.77,1.61,3.67,2.84,1.15,1.58,1.58,1.94,2,1.81l23.7-42.45a1,1,0,0,1,.24-.29c.08-.07,8.12-6.73,8.48-12.16a11.28,11.28,0,0,0-4.11-8.88A3.51,3.51,0,0,0,290,95.15c-1,.44-4.87,5.87-7.88,10.64a1,1,0,0,1-1.84-.39c-.92-6.35-2.19-7.53-2.69-7.75-.11-.05-.46-.2-1.3.4-.71,1-.06,8,1,13.93a1,1,0,0,1-.18.78l-26.27,35.39a9.46,9.46,0,0,0-1.59,3.21c3-.11,4.09,1.9,4.82,3.27.83,1.55,1.14,2.13,3.41,1A2.87,2.87,0,0,1,258.77,155.35Z" fill="#093f68"/><path d="M285.31,114.36a.91.91,0,0,1-.39-.08,1,1,0,0,1-.52-1.31c.94-2.21,1.06-3.89.34-5-1-1.59-3.44-1.7-3.47-1.7a1,1,0,0,1,.07-2c.14,0,3.5.13,5.08,2.61,1.1,1.72,1,4-.19,6.9A1,1,0,0,1,285.31,114.36Z" fill="#093f68"/><path d="M237.21,207.92c.07,1.13.11,2.27.11,3.43v18.79a82.2,82.2,0,0,1-8.54,3.57,86.3,86.3,0,0,1-57.56,0,82.2,82.2,0,0,1-8.54-3.57V211.35c0-1.23,0-2.43.13-3.63l-35.06-49.47,25.3-16.41s32.43,31.25,34.88,31.25h24.14c2.5,0,34.88-31,34.88-31l25.3,16.42Z" fill="#68e1fd" class="target-color"/><path d="M200,239.65a86.54,86.54,0,0,1-29.12-5,85,85,0,0,1-8.64-3.61,1,1,0,0,1-.56-.9V211.35c0-1,0-2.15.11-3.34l-34.86-49.18a1,1,0,0,1-.16-.77,1,1,0,0,1,.44-.65L152.51,141a1,1,0,0,1,1.23.12c12,11.52,31.74,30,34.28,31h24c2.55-.92,22.33-19.3,34.28-30.75a1,1,0,0,1,1.23-.12l25.3,16.42a1,1,0,0,1,.44.65,1,1,0,0,1-.16.77l-34.84,49.15c.06,1.08.09,2.11.09,3.14v18.79a1,1,0,0,1-.56.9,85,85,0,0,1-8.64,3.61A86.54,86.54,0,0,1,200,239.65Zm-36.32-10.14a81.83,81.83,0,0,0,7.88,3.26,85.31,85.31,0,0,0,56.88,0,81.83,81.83,0,0,0,7.88-3.26V211.35c0-1.1,0-2.2-.11-3.37a1,1,0,0,1,.18-.64l34.44-48.59-23.76-15.42c-12.27,11.75-32.51,30.76-35,30.76H187.93c-2.44,0-22.71-19.15-35-31l-23.76,15.41,34.46,48.62a1.07,1.07,0,0,1,.18.65c-.09,1.28-.13,2.45-.13,3.56Zm73.64.63h0Z" fill="#093f68"/><polygon points="200 206.07 189.89 173.09 210.11 173.09 200 206.07" fill="#093f68"/><path d="M200,207.07a1,1,0,0,1-1-.71l-10.1-33a1,1,0,0,1,.15-.88,1,1,0,0,1,.8-.41h20.22a1,1,0,0,1,.8.41,1,1,0,0,1,.15.88l-10.1,33A1,1,0,0,1,200,207.07Zm-8.75-33L200,202.66l8.75-28.57Z" fill="#093f68"/><circle cx="197.8" cy="125.52" r="52.77" fill="#ffbc0e"/><path d="M197.8,179.29a53.77,53.77,0,1,1,53.77-53.77A53.83,53.83,0,0,1,197.8,179.29Zm0-105.54a51.77,51.77,0,1,0,51.77,51.77A51.83,51.83,0,0,0,197.8,73.75Z" fill="#093f68"/><path d="M175.83,115.91c0-4.71,3.09-8.52,6.91-8.52s6.91,3.81,6.91,8.52" fill="#ffbc0e"/><path d="M189.65,117.41a1.5,1.5,0,0,1-1.5-1.5c0-3.87-2.43-7-5.41-7s-5.41,3.15-5.41,7a1.5,1.5,0,0,1-3,0c0-5.53,3.77-10,8.41-10s8.41,4.49,8.41,10A1.5,1.5,0,0,1,189.65,117.41Z" fill="#093f68"/><path d="M206,115.91c0-4.71,3.09-8.52,6.91-8.52s6.91,3.81,6.91,8.52" fill="#ffbc0e"/><path d="M219.77,117.41a1.5,1.5,0,0,1-1.5-1.5c0-3.87-2.43-7-5.41-7s-5.41,3.15-5.41,7a1.5,1.5,0,1,1-3,0c0-5.53,3.77-10,8.41-10s8.41,4.49,8.41,10A1.5,1.5,0,0,1,219.77,117.41Z" fill="#093f68"/><path d="M162.47,130.72a36.06,36.06,0,0,0,70.66,0" fill="#ffbc0e"/><path d="M197.8,161.06A37.64,37.64,0,0,1,161,131a1.5,1.5,0,1,1,2.94-.6,34.56,34.56,0,0,0,67.72,0,1.5,1.5,0,0,1,2.94.6A37.66,37.66,0,0,1,197.8,161.06Z" fill="#093f68"/><path d="M200,239.65a1,1,0,0,1-1-1V206.07a1,1,0,0,1,2,0v32.58A1,1,0,0,1,200,239.65Z" fill="#093f68"/><path d="M216.56,227.79a1,1,0,0,1-.54-.16l-6.46-4.24a1,1,0,0,1-.45-.83V209.64a1,1,0,0,1,1-1H223a1,1,0,0,1,1,1v12.92a1,1,0,0,1-.45.83l-6.46,4.24A1,1,0,0,1,216.56,227.79ZM211.11,222l5.45,3.58L222,222V210.64H211.11Zm11.91.54h0Z" fill="#093f68"/></g></svg>